<?xml version="1.0" encoding="utf-8"?>
<!DOCTYPE svg PUBLIC "-//W3C//DTD SVG 1.0//EN" "http://www.w3.org/TR/2001/REC-SVG-20010904/DTD/svg10.dtd">
<svg version="1.0" xmlns="http://www.w3.org/2000/svg" width="173px" height="95px" viewBox="0 0 173 95" preserveAspectRatio="xMidYMid meet">
 <g fill="#ffffff">
  <path d="M0 47.50 l0 -47.50 86.50 0 86.50 0 0 47.50 0 47.50 -86.50 0 -86.50 0 0 -47.50z m33.50 34.50 c0 -0.25 -0.20 -0.50 -0.50 -0.50 -0.75 0 -0.60 -4.10 0.20 -5.10 0.35 -0.50 1.05 -0.90 1.50 -0.90 0.50 0 0.80 -0.40 0.80 -1.25 0 -1.40 1 -3.75 1.60 -3.75 0.20 0 0.40 -0.65 0.40 -1.50 0 -0.80 0.15 -1.50 0.40 -1.50 0.45 0 1.60 -3.60 1.60 -5.15 0 -0.65 0.25 -1.40 0.55 -1.70 0.55 -0.55 0.75 -5.55 0.25 -6 -0.40 -0.40 -2.80 1.05 -2.80 1.70 0 0.40 -0.90 1.60 -2 2.70 -1.10 1.10 -2 2.40 -2 2.95 0 0.50 -0.20 1.10 -0.50 1.25 -0.30 0.20 -0.50 2.65 -0.50 5.80 0 3.30 -0.20 5.45 -0.50 5.45 -0.25 0 -0.50 0.45 -0.50 1 0 0.55 -0.25 1 -0.60 1 -0.45 0 -0.45 0.15 0 0.60 0.75 0.75 0.80 4.40 0.05 4.40 -0.25 0 -0.35 0.25 -0.20 0.50 0.15 0.30 0.85 0.50 1.55 0.50 0.65 0 1.20 -0.20 1.20 -0.50z m8.25 -0.60 c0.30 -0.65 1 -1.35 1.60 -1.65 0.60 -0.25 1.40 -1.10 1.70 -1.85 0.30 -0.80 0.75 -1.40 1 -1.40 0.25 0 0.45 -0.55 0.45 -1.20 0 -0.70 0.25 -1.40 0.50 -1.55 0.30 -0.15 0.50 -0.75 0.50 -1.30 0 -0.50 0.25 -0.95 0.50 -0.95 0.30 0 0.50 -0.45 0.50 -1 0 -0.55 0.25 -1 0.50 -1 0.30 0 0.50 -0.45 0.50 -1 0 -0.55 0.25 -1 0.50 -1 0.30 0 0.50 -1 0.50 -2.25 0 -1.30 0.45 -3.25 1 -4.35 0.70 -1.40 1 -3.10 1 -5.25 l0 -3.15 -1.50 0 c-1.35 0 -1.50 0.15 -1.50 1.50 0 0.85 -0.20 1.50 -0.50 1.50 -0.25 0 -0.50 0.35 -0.50 0.80 0 0.40 -0.30 1.10 -0.70 1.50 -0.40 0.35 -0.85 1.60 -1.05 2.70 -0.20 1.10 -0.55 2 -0.80 2 -0.25 0 -0.45 0.45 -0.45 1 0 0.55 -0.20 1 -0.40 1 -0.55 0 -2.25 5.85 -2.50 8.85 -0.15 1.60 -0.60 3 -1.15 3.60 -0.65 0.70 -0.95 1.75 -0.95 3.30 0 2.45 0.50 2.90 1.25 1.15z m28.75 -8.15 c0 -1.60 0.30 -2.60 1 -3.35 0.55 -0.60 1 -1.50 1 -1.95 0 -0.50 0.25 -1.05 0.50 -1.20 0.30 -0.15 0.50 -0.75 0.50 -1.30 0 -0.50 0.25 -0.95 0.50 -0.95 0.30 0 0.50 -0.40 0.50 -0.85 0 -0.50 0.45 -1.65 1 -2.55 0.75 -1.20 1 -2.50 1 -5.10 l0 -3.50 -1.50 0 c-1.30 0 -1.50 0.20 -1.50 1.40 0 0.75 -0.45 2.10 -1 3 -0.55 0.90 -1 2.05 -1 2.60 0 0.55 -0.20 1 -0.50 1 -0.25 0 -0.50 0.30 -0.50 0.65 0 0.90 -1.20 3.35 -1.60 3.35 -0.25 0 -0.40 0.55 -0.40 1.15 0 0.65 -0.15 1.30 -0.30 1.50 -0.70 0.65 -0.30 5.85 0.50 7.10 1.20 1.85 1.80 1.55 1.80 -1z m14.45 0.65 c0.40 -0.90 1.10 -2.25 1.65 -3 0.50 -0.70 0.90 -1.80 0.90 -2.35 0 -0.60 0.15 -1.05 0.40 -1.05 1.45 0 2.30 -11.90 0.90 -13.30 -1 -1 -1.30 -0.90 -1.30 0.50 0 0.70 -0.20 1.40 -0.50 1.55 -0.25 0.15 -0.50 0.75 -0.50 1.30 0 0.50 -0.20 0.95 -0.50 0.95 -0.25 0 -0.50 0.55 -0.50 1.20 0 0.70 -0.20 1.40 -0.50 1.55 -0.25 0.15 -0.50 0.75 -0.50 1.30 0 0.50 -0.20 0.95 -0.50 0.95 -0.25 0 -0.50 0.85 -0.50 1.90 0 1.05 -0.20 2.10 -0.45 2.40 -0.25 0.25 -0.55 2.10 -0.65 4.10 -0.15 3.35 -0.10 3.60 0.85 3.60 0.65 0 1.25 -0.55 1.70 -1.60z m11.60 -0.15 c0.50 -0.80 0.90 -1.90 0.90 -2.35 0.05 -0.50 0.30 -0.90 0.55 -0.90 0.30 0 0.50 -0.40 0.50 -0.95 0 -0.50 0.45 -1.50 1 -2.20 0.90 -1.10 1 -2 1 -7.50 0 -5.80 -0.05 -6.25 -1 -6.50 -0.85 -0.20 -1 0 -1 1.55 0 1.05 -0.35 2.30 -0.75 2.80 -0.40 0.55 -0.75 1.35 -0.75 1.75 0 0.45 -0.55 1.85 -1.25 3.15 -0.70 1.30 -1.25 2.70 -1.25 3.15 0 0.40 -0.20 0.75 -0.50 0.75 -0.30 0 -0.50 1.85 -0.50 4.55 0 4.35 0.05 4.50 1.10 4.35 0.60 -0.10 1.45 -0.80 1.95 -1.65z m10.95 -0.15 c0 -1.30 0.35 -2.25 1 -2.85 0.55 -0.50 1 -1.45 1 -2.10 0 -0.60 0.25 -1.15 0.50 -1.15 0.30 0 0.50 -0.65 0.50 -1.40 0 -0.75 0.25 -1.65 0.55 -1.95 0.35 -0.35 0.55 -2 0.55 -3.75 -0.05 -1.70 0.20 -3.40 0.50 -3.80 0.45 -0.50 0.20 -1 -1 -2.25 l-1.60 -1.60 0 2.30 c0 1.65 -0.30 2.55 -1 3.20 -0.55 0.50 -1 1.30 -1 1.75 0 1.05 -1.15 3.50 -1.60 3.50 -0.25 0 -0.40 0.55 -0.40 1.20 0 0.70 -0.20 1.40 -0.50 1.55 -0.25 0.15 -0.50 1.65 -0.50 3.35 0 2.35 0.25 3.30 1.15 4.40 1.50 1.95 1.85 1.85 1.85 -0.40z m-47.45 -2.10 c0.25 0 0.45 -0.75 0.45 -1.65 0 -1.45 1.60 -5.70 2.45 -6.35 0.75 -0.60 1.65 -4 1.70 -6.50 0.10 -3.40 1.30 -5.50 3.10 -5.50 0.75 0 1.25 -0.30 1.25 -0.70 0 -0.40 0.15 -1.05 0.30 -1.50 0.25 -0.60 0 -0.80 -1 -0.80 -0.70 0 -1.30 -0.30 -1.30 -0.65 0 -0.40 -0.70 -0.55 -2.25 -0.45 -2.25 0.20 -2.25 0.20 -2.25 -1.45 0 -1.25 0.45 -2.15 1.85 -3.55 1 -1.05 2.15 -1.90 2.50 -1.90 0.35 0 0.65 -0.45 0.65 -1 0 -0.55 0.45 -1.75 1 -2.75 1.05 -1.90 1.40 -6.95 0.50 -7.50 -0.25 -0.15 -0.50 -0.80 -0.50 -1.45 0 -0.65 -0.80 -1.85 -2 -2.95 -1.10 -1 -2 -1.95 -2 -2.15 0 -0.60 -2.25 -2.15 -3.10 -2.20 -0.50 0 -0.90 -0.20 -0.90 -0.50 0 -0.25 -0.35 -0.50 -0.80 -0.50 -0.45 0 -1.15 -0.40 -1.50 -0.85 -0.60 -0.80 -0.60 -0.70 -0.20 0.60 0.30 0.90 0.45 6 0.40 12.25 l-0.15 10.75 -2 0.25 c-1.25 0.15 -1.75 0.40 -1.35 0.65 0.30 0.25 0.60 1.05 0.60 1.90 0 0.80 0.25 1.45 0.50 1.45 0.30 0 0.50 0.40 0.50 0.95 0 0.50 0.45 1.05 1 1.20 0.55 0.15 1 0.55 1 0.95 0 0.80 2.25 1.90 3.85 1.90 1 0 1.15 0.25 1.15 1.75 0 1.20 -0.30 1.85 -1 2.25 -0.55 0.30 -1 0.80 -1 1.15 0 0.35 -0.90 1.55 -2 2.60 -1.10 1.05 -2 2.35 -2 2.80 0 0.50 -0.20 1.05 -0.50 1.20 -0.30 0.15 -0.50 2.40 -0.50 5 0 4.50 0.05 4.70 1.40 5.75 l1.35 1.10 0.15 -1.80 c0.10 -1 0.35 -1.80 0.65 -1.80z m62.65 -8 c1.70 -3.20 1.80 -3.45 1.80 -6.25 0 -3.05 -0.40 -3.40 -1.60 -1.35 -0.45 0.75 -1.65 2.20 -2.60 3.30 -1 1.05 -1.80 2.35 -1.80 2.85 0 0.50 -0.20 1.05 -0.50 1.20 -0.75 0.50 -0.60 6.45 0.25 8.05 0.40 0.80 1.25 1.80 1.85 2.30 l1.15 0.85 0.25 -4.60 c0.15 -3.20 0.55 -5.15 1.20 -6.35z m24.85 8.65 c0.30 -0.75 0.60 -3.15 0.75 -5.35 0.15 -3.20 0.40 -4.20 1.30 -5.15 l1.05 -1.15 -3.35 0 c-3.80 0 -4.55 -0.45 -5.60 -3.40 -0.60 -1.70 -0.70 -1.75 -1 -0.70 -0.15 0.60 -0.55 1.10 -0.80 1.10 -0.30 0 -0.35 1.10 -0.15 2.75 0.40 3.05 -0.15 4.25 -1.90 4.25 -1.50 0 -2.30 1.45 -2.35 4.25 0 3.35 0.45 3.95 2 2.75 0.70 -0.55 0.95 -1 0.65 -1 -0.40 0 -0.65 -0.75 -0.65 -2 l0 -2 2 0 c1.10 0 2 0.25 2 0.50 0 0.30 0.45 0.50 0.95 0.50 0.60 0 1.25 0.60 1.65 1.50 0.35 0.85 0.80 1.50 1 1.50 0.25 0 0.40 0.70 0.40 1.50 0 1.95 1.35 2 2.05 0.15z m-14.35 -10.80 c0.40 -0.30 0.35 -0.50 -0.05 -0.70 -0.35 -0.10 -0.65 -0.90 -0.65 -1.70 0 -0.80 -0.25 -1.45 -0.50 -1.45 -0.80 0 -1.30 1.65 -0.60 1.90 0.35 0.10 0.60 1 0.65 2 0 1.05 0.15 1.50 0.30 1.10 0.15 -0.40 0.55 -0.95 0.85 -1.15z m0.30 -5.90 c0 -0.50 -0.20 -0.95 -0.50 -0.95 -0.25 0 -0.50 0.60 -0.50 1.30 0 0.70 0.20 1.15 0.50 0.95 0.30 -0.15 0.50 -0.75 0.50 -1.30z m17 0.55 c0 -0.25 -0.25 -0.60 -0.55 -0.80 -0.70 -0.40 -1.65 0.55 -1.25 1.25 0.35 0.55 1.80 0.20 1.80 -0.45z m-22 -9.95 c0 -0.30 -0.20 -0.65 -0.50 -0.80 -0.25 -0.15 -0.50 -0.85 -0.50 -1.55 0 -0.65 -0.20 -1.20 -0.50 -1.20 -0.25 0 -0.50 -0.45 -0.50 -1 0 -0.55 -0.20 -1.45 -0.50 -2 -0.25 -0.55 -0.70 -1.45 -1 -2 -0.25 -0.55 -0.50 -1.55 -0.50 -2.25 0 -0.70 -0.40 -2.20 -0.95 -3.40 -0.50 -1.15 -1.40 -3.15 -2 -4.45 -0.55 -1.30 -1.05 -3.25 -1.05 -4.30 0 -2.90 -1 -4.60 -2.60 -4.60 -0.80 0 -1.40 -0.20 -1.40 -0.50 0 -0.25 -0.40 -0.50 -0.85 -0.50 -1.50 0 -2.15 2.35 -2.15 7.45 0 4 0.20 5 1 6.05 0.55 0.70 1 2 1 2.90 0 0.85 0.20 1.60 0.40 1.60 0.20 0 0.65 1.05 1.05 2.40 0.35 1.30 0.85 2.85 1.15 3.40 0.30 0.60 0.45 2 0.30 3.15 l-0.20 2.05 5.15 0 c2.90 0 5.15 -0.20 5.15 -0.45z m18 -13.55 l0 -14 -2 0 c-1.10 0 -2 -0.20 -2 -0.50 0 -0.30 -1.35 -0.50 -3 -0.50 l-3 0 0 14.50 0 14.50 5 0 5 0 0 -14z m-96 11.50 c0 -0.80 -0.20 -1.50 -0.50 -1.50 -0.70 0 -0.65 -20.25 0 -21.55 0.50 -0.85 0.35 -0.95 -1.20 -0.95 -1.10 0 -1.80 -0.25 -1.90 -0.75 -0.25 -1.25 -4.40 1.50 -4.40 2.95 0 0.65 -0.30 1.30 -0.70 1.45 -0.75 0.30 -1.75 2.20 -2.85 5.50 -0.50 1.45 -0.50 2.20 -0.05 3.50 0.35 0.90 0.60 2.05 0.60 2.55 0 0.45 0.45 1.30 1 1.90 0.55 0.60 1 1.40 1 1.75 0 0.35 0.25 0.65 0.50 0.65 0.30 0 0.50 0.35 0.50 0.80 0 0.95 1.20 2.20 2.15 2.20 0.40 0 1.10 0.45 1.60 1 0.50 0.55 1.30 1 1.80 1 0.50 0 1.05 0.25 1.20 0.50 0.60 1 1.25 0.45 1.25 -1z m35 -12 l0 -13.50 -1.50 0 c-0.80 0 -1.50 -0.20 -1.50 -0.50 0 -0.30 -1.50 -0.50 -3.50 -0.50 l-3.50 0 0 10.70 0 10.65 1.65 1.70 c2.05 2.15 4.60 3.95 5.60 3.95 0.40 0 0.75 0.25 0.75 0.50 0 0.30 0.45 0.50 1 0.50 1 0 1 -0.35 1 -13.50z m73 13 c0 -0.25 0.45 -0.50 1 -0.50 0.55 0 1 -0.30 1 -0.60 0 -0.35 0.90 -1.55 2 -2.65 1.25 -1.30 1.95 -2.45 2 -3.35 0 -0.75 0.25 -1.50 0.50 -1.65 0.30 -0.15 0.50 -1.40 0.50 -2.75 0 -2.50 -2 -7.25 -4 -9.40 -0.55 -0.60 -1 -1.35 -1 -1.70 0 -0.80 -2.25 -1.90 -3.80 -1.90 -0.65 0 -1.30 -0.20 -1.45 -0.50 -0.15 -0.25 -0.45 -0.50 -0.65 -0.50 -0.20 0 -0.30 5.40 -0.20 12 0.10 8.05 -0.05 12 -0.40 12 -0.25 0 -0.50 0.25 -0.50 0.50 0 0.30 0.35 0.50 0.75 0.50 0.40 0 0.75 0.25 0.75 0.50 0 0.30 0.80 0.50 1.75 0.50 0.95 0 1.75 -0.20 1.75 -0.50z m-123.70 -4.35 c1.05 -2.85 -1.15 -8.15 -3.35 -8.15 -0.45 0 -1.45 -0.65 -2.10 -1.50 -0.70 -0.80 -1.70 -1.50 -2.15 -1.50 -1.50 0 -4.40 -1.20 -5.10 -2.10 -0.35 -0.50 -1.10 -0.90 -1.65 -0.90 -0.60 0 -0.95 -0.35 -0.95 -1 0 -0.55 -0.20 -1 -0.50 -1 -0.25 0 -0.50 -0.65 -0.50 -1.50 0 -1.40 -0.15 -1.50 -1.75 -1.50 -0.95 0 -1.75 -0.25 -1.75 -0.55 0 -1.30 -1.30 0.60 -1.95 2.85 -0.55 1.80 -0.55 2.45 -0.15 2.60 0.35 0.10 0.60 0.85 0.60 1.65 0 0.90 0.25 1.45 0.65 1.45 0.40 0 1.10 0.45 1.55 0.95 0.50 0.55 1.60 1.25 2.45 1.55 2.95 1.10 4.10 1.75 4.75 2.65 0.35 0.45 1.10 0.85 1.65 0.85 0.50 0 0.95 0.25 0.95 0.50 0 0.30 0.50 0.50 1.15 0.50 1.40 0.05 2.85 1.10 2.85 2.15 0 0.45 0.25 0.95 0.50 1.10 0.30 0.15 0.50 0.85 0.50 1.55 0 0.75 0.30 1.20 0.75 1.20 0.45 0 0.90 0.35 1.10 0.80 0.25 0.65 0.40 0.65 1.10 -0.15 0.45 -0.50 1.05 -1.60 1.35 -2.50z"/>
 </g>
 <g fill="#fb00d3">
  <path d="M61.30 53.75 c0.90 -0.70 0.90 -0.70 -0.35 -0.75 -1.70 0 -3.95 -1.10 -3.95 -1.90 0 -0.40 -0.45 -0.80 -1 -0.95 -0.55 -0.15 -1 -0.70 -1 -1.20 0 -0.70 -0.35 -0.95 -1.45 -0.95 -0.85 0 -1.65 -0.20 -1.80 -0.50 -0.15 -0.25 -1.05 -0.50 -2 -0.50 -0.95 0 -1.85 -0.20 -2 -0.50 -0.15 -0.25 -0.70 -0.50 -1.20 -0.50 -0.50 0 -1.30 -0.45 -1.80 -1 -0.50 -0.55 -1.20 -1 -1.60 -1 -0.95 0 -2.15 -1.25 -2.15 -2.20 0 -0.45 -0.20 -0.80 -0.50 -0.80 -0.25 0 -0.50 -0.30 -0.50 -0.65 0 -0.35 -0.40 -1.10 -0.95 -1.65 -1.55 -1.70 -2.55 -8.75 -1.55 -11.35 1.35 -3.50 2.10 -4.90 2.80 -5.20 0.40 -0.15 0.70 -0.75 0.70 -1.40 0 -1.40 4.95 -4.75 7.05 -4.75 1.60 0 1.70 0.15 0.95 1.45 -0.40 0.80 -0.30 0.85 0.80 0.65 1.25 -0.25 1.30 -0.20 0.55 1.20 -1.45 2.90 -1.50 20.55 -0.05 20 0.45 -0.15 0.70 0.10 0.70 0.65 0 0.75 0.40 0.90 2.90 0.85 l2.85 -0.05 0.15 -9 c0.15 -9.15 -0.30 -12.70 -1.80 -14.20 -0.60 -0.60 -0.75 -0.60 -1.10 0 -0.25 0.35 -0.60 0.50 -0.80 0.30 -0.70 -0.70 1.55 -1.80 3.65 -1.85 1.60 0 2.30 0.25 2.75 1 0.35 0.55 1.05 1 1.50 1 0.50 0 0.90 0.25 0.90 0.50 0 0.30 0.40 0.50 0.90 0.50 0.80 0.05 3.10 1.60 3.10 2.20 0 0.15 0.55 0.85 1.20 1.55 1.50 1.60 2.20 7.25 1.50 12.40 -0.45 3.10 -0.40 3.35 0.45 3.35 0.70 0 0.85 0.15 0.45 0.65 -0.25 0.30 -0.60 2.25 -0.70 4.25 -0.15 3.40 -0.10 3.65 0.75 3.40 0.70 -0.15 0.85 -0.05 0.60 0.60 -0.20 0.45 -0.50 1.35 -0.65 2 -0.10 0.60 -0.60 1.40 -1.05 1.75 -0.50 0.35 -1 1 -1.20 1.50 -0.20 0.50 -0.85 0.85 -1.55 0.85 -0.70 0 -1.40 0.25 -1.55 0.50 -0.15 0.30 -1.15 0.50 -2.15 0.50 -1.70 0 -1.75 -0.05 -0.80 -0.75z m-7.60 -7.55 c0.30 -0.85 -0.45 -2.20 -1.25 -2.20 -0.25 0 -0.45 0.55 -0.45 1.15 0 1.85 1.15 2.55 1.70 1.05z m11.90 -1.10 c0.35 -0.50 1.05 -1.05 1.55 -1.25 0.45 -0.15 0.85 -0.65 0.85 -1.10 0 -1.05 -0.05 -1 -2.25 1.25 -1.05 1.10 -1.70 2 -1.40 2 0.35 0 0.90 -0.40 1.25 -0.90z"/>
  <path d="M85.50 47.50 c-0.40 -0.25 -1.35 -0.50 -2.10 -0.50 -0.80 0 -1.40 -0.20 -1.40 -0.50 0 -0.25 -0.35 -0.50 -0.75 -0.50 -1 0 -3.55 -1.80 -5.60 -3.95 l-1.65 -1.70 0 -11.15 c0 -6.90 -0.20 -11.25 -0.50 -11.45 -0.25 -0.15 -0.50 -0.65 -0.50 -1.05 0 -0.55 1.05 -0.70 5.50 -0.70 3.35 0 5.50 0.20 5.50 0.50 0 0.30 0.35 0.50 0.80 0.50 0.65 0 0.75 0.30 0.50 1.65 -0.20 0.85 -0.50 5 -0.65 9.10 -0.30 9 0.35 13.85 2.15 15.50 0.65 0.60 1.20 1.50 1.20 1.95 0 0.55 0.45 0.80 1.45 0.80 0.85 0 1.65 0.25 1.80 0.50 0.15 0.30 1.05 0.50 1.90 0.55 1.35 0 1.45 0.10 0.60 0.45 -1.40 0.60 -7.35 0.60 -8.25 0z"/>
  <path d="M102.75 47.50 c-0.15 -0.25 -0.85 -0.50 -1.55 -0.50 -0.65 0 -1.20 -0.20 -1.20 -0.50 0 -0.25 0.65 -0.50 1.40 -0.50 1.50 0 3.60 -1.90 3.60 -3.20 0 -0.40 0.25 -0.90 0.50 -1.05 0.30 -0.20 0.50 0.30 0.50 1.20 0 0.80 0.15 1.80 0.30 2.25 0.40 1 1.70 1.05 1.70 0.05 0 -1.15 0.75 -0.90 1.50 0.50 0.45 0.90 1.10 1.25 2.10 1.25 0.75 0 1.40 -0.20 1.40 -0.50 0 -0.25 0.60 -0.50 1.40 -0.50 1.75 0 2.90 -1.70 2.20 -3.20 -0.30 -0.55 -0.80 -2.10 -1.15 -3.40 -0.60 -2.10 -0.85 -2.40 -2 -2.40 -0.75 0 -1.50 0.30 -1.65 0.65 -0.25 0.50 -0.35 0.50 -0.60 0 -0.15 -0.35 -0.90 -0.65 -1.65 -0.65 -0.75 0 -1.65 0.30 -2 0.65 -0.50 0.50 -0.60 0.40 -0.45 -0.40 0.15 -0.85 0.60 -1 3.55 -1.15 3.10 -0.15 3.35 -0.25 3.35 -1.25 0 -0.60 -0.45 -1.65 -1 -2.35 -0.70 -0.90 -1 -2.05 -1 -4.05 0 -1.50 -0.30 -3.05 -0.60 -3.35 -0.50 -0.50 -0.50 -0.85 0 -1.60 0.30 -0.55 0.60 -1.85 0.60 -2.90 0 -1.05 0.30 -2.50 0.65 -3.25 0.50 -1.20 0.90 -1.35 3 -1.35 1.30 0 2.35 0.25 2.35 0.50 0 0.30 0.55 0.50 1.20 0.50 1 0 1.25 0.35 1.75 2.40 0.35 1.30 0.95 3.35 1.40 4.60 0.40 1.25 0.95 3.30 1.15 4.60 0.25 1.25 0.80 3 1.20 3.85 0.45 0.80 0.80 1.90 0.80 2.45 0 0.50 0.15 1.10 0.35 1.30 0.45 0.45 1.65 3.90 1.65 4.80 0 0.40 0.50 1.30 1.15 2 0.60 0.70 1.40 1.85 1.80 2.65 0.70 1.30 1.55 1.80 1.55 0.90 0 -0.25 0.60 -0.55 1.40 -0.65 l1.35 -0.15 0.15 -13.70 c0.10 -10.10 -0.05 -13.85 -0.50 -14.40 -0.45 -0.55 -0.45 -0.80 0.15 -1.20 0.95 -0.60 9.45 -0.60 9.45 0.05 0 0.30 0.35 0.50 0.75 0.50 0.65 0 0.75 1.85 0.75 13.75 l0 13.75 1.25 0 c0.75 0 1.25 0.30 1.25 0.75 0 0.95 1.55 1.75 3.60 1.80 l1.65 0.05 -1.50 0.45 c-2.05 0.60 -35.75 0.55 -35.75 -0.05 0 -0.30 -0.65 -0.50 -1.50 -0.50 -0.80 0 -1.50 0.25 -1.50 0.50 0 0.30 -2 0.50 -4.95 0.50 -2.80 0 -5.15 -0.20 -5.30 -0.50z"/>
  <path d="M20.50 45.75 c-0.35 -0.70 -0.50 -1.40 -0.30 -1.60 0.20 -0.20 0.45 0.15 0.65 0.75 0.15 0.60 0.45 1.10 0.70 1.10 0.25 0 0.45 0.25 0.45 0.50 0 0.90 -0.85 0.50 -1.50 -0.75z"/>
  <path d="M26 46.55 c0 -0.25 0.35 -0.60 0.75 -0.75 1.15 -0.40 2.45 -3.80 1.80 -4.45 -0.30 -0.30 -0.55 -0.85 -0.55 -1.25 0 -1 -1.50 -2.05 -2.85 -2.10 -0.65 0 -1.15 -0.20 -1.15 -0.50 0 -0.25 -0.45 -0.50 -0.95 -0.50 -0.55 0 -1.30 -0.40 -1.65 -0.85 -0.65 -0.90 -1.80 -1.55 -4.75 -2.65 -0.85 -0.30 -1.95 -1 -2.45 -1.55 -0.45 -0.50 -1.15 -0.95 -1.55 -0.95 -0.40 0 -0.65 -0.60 -0.65 -1.50 0 -0.80 -0.20 -1.50 -0.50 -1.50 -0.70 0 -0.60 -3.90 0.15 -6.05 0.35 -0.95 1.60 -2.70 2.80 -3.85 3.05 -2.90 4.65 -2.75 2.75 0.20 -0.90 1.30 -0.60 2.30 0.40 1.30 0.75 -0.75 1.60 -0.80 1.15 -0.10 -0.15 0.30 0.05 0.85 0.45 1.30 0.45 0.40 0.80 1.10 0.80 1.50 0 0.40 0.25 0.70 0.50 0.70 0.30 0 0.50 0.45 0.50 1 0 0.65 0.35 1 0.95 1 0.55 0 1.30 0.40 1.65 0.90 0.70 0.90 3.60 2.10 5.10 2.10 0.45 0 1.45 0.70 2.15 1.50 0.65 0.85 1.70 1.50 2.20 1.50 0.65 0 1.20 0.55 1.55 1.55 0.40 1.15 0.65 1.35 0.95 0.85 0.30 -0.45 0.45 -0.35 0.45 0.45 0 0.60 0.15 1.50 0.30 2 0.25 0.75 0.20 0.75 -0.25 0.15 -0.40 -0.60 -0.55 -0.25 -0.60 1.50 -0.05 2.95 -0.85 4.95 -2.80 7.25 -1.40 1.65 -1.65 1.75 -1.65 0.85 0 -1.25 -0.80 -1.85 -1.15 -0.90 -0.15 0.40 -1 1.05 -1.90 1.50 -1.85 0.95 -1.95 0.95 -1.95 0.35z"/>
  <path d="M153.50 46.50 c0 -0.25 -0.80 -0.50 -1.75 -0.50 -1.95 0 -2.25 -0.65 -0.75 -1.60 0.55 -0.35 1 -1.05 1 -1.50 0 -0.50 0.25 -0.90 0.50 -0.90 0.30 0 0.50 -3.75 0.50 -10.20 0 -6.30 -0.20 -10.35 -0.50 -10.55 -0.25 -0.15 -0.50 -0.65 -0.50 -1.10 0 -1.05 -1.90 -2.65 -2.80 -2.30 -0.40 0.15 -0.70 0 -0.70 -0.30 0 -0.30 0.35 -0.55 0.75 -0.55 0.40 0 0.75 -0.20 0.75 -0.50 0 -0.60 2.65 -0.65 3.25 -0.05 0.95 0.90 4.30 2.55 5.15 2.55 1.55 0 3.60 1.20 3.60 2.15 0 0.45 0.20 0.85 0.40 0.85 0.20 0 0.75 0.65 1.25 1.45 1.15 1.95 1.25 15.50 0.15 18.10 -0.75 1.75 -3.20 3.95 -4.45 3.95 -0.40 0 -1 0.35 -1.35 0.75 -0.70 0.85 -4.50 1.05 -4.50 0.25z"/>
  <path d="M92 45.60 c0 -0.20 0.70 -0.90 1.50 -1.60 0.85 -0.70 1.50 -1.65 1.50 -2.10 0 -0.50 0.25 -0.90 0.50 -0.90 1 0 0.15 1.80 -1.80 3.75 -1.30 1.30 -1.70 1.50 -1.70 0.85z"/>
  <path d="M11.40 45.20 c-0.60 -0.55 -0.50 -12.10 0.10 -12.45 0.30 -0.20 0.50 0.60 0.50 1.95 0 1.25 0.20 2.30 0.45 2.30 0.25 0 0.60 0.50 0.80 1.15 0.35 0.95 0.45 0.85 0.75 -0.90 0.20 -1.10 0.40 -1.70 0.45 -1.30 0 0.40 0.60 1.40 1.25 2.30 1.45 1.90 3.30 5.10 3.30 5.70 0 0.25 -0.90 0.35 -2 0.20 -1.65 -0.25 -2 -0.15 -2 0.55 0 0.45 -0.20 0.80 -0.50 0.80 -0.25 0 -0.50 -0.80 -0.50 -1.75 0 -1.40 -0.20 -1.75 -0.95 -1.75 -0.75 0 -1 0.40 -1.15 1.80 -0.10 1 -0.30 1.60 -0.50 1.40z"/>
  <path d="M106 40 c0 -0.55 0.25 -1 0.50 -1 0.30 0 0.50 0.45 0.50 1 0 0.55 -0.20 1 -0.50 1 -0.25 0 -0.50 -0.45 -0.50 -1z"/>
  <path d="M96 28.10 c0 -6.60 -0.20 -10.10 -0.55 -10.45 -0.70 -0.70 -0.15 -1.65 1 -1.65 1.30 0 3.55 1.15 3.55 1.85 0 0.80 -0.85 1.30 -1.25 0.65 -0.15 -0.25 -0.65 -0.50 -1.05 -0.50 -0.60 0 -0.70 1.65 -0.70 10 0 6.35 -0.20 10 -0.50 10 -0.30 0 -0.50 -3.65 -0.50 -9.90z"/>
  <path d="M14.25 34.35 c-0.20 -0.50 -0.25 -1.05 -0.05 -1.20 0.50 -0.50 0.90 0.20 0.65 1.20 -0.20 0.85 -0.20 0.85 -0.60 0z"/>
  <path d="M108 32.75 c0 -0.40 0.20 -1.15 0.45 -1.65 0.25 -0.45 0.65 -1.30 0.85 -1.85 0.35 -0.95 0.40 -0.90 0.60 0.25 0.10 0.65 -0.05 1.30 -0.35 1.40 -0.30 0.10 -0.55 0.75 -0.55 1.40 0 0.65 -0.20 1.20 -0.50 1.20 -0.25 0 -0.50 -0.35 -0.50 -0.75z"/>
  <path d="M110 27.30 c0 -0.40 0.25 -0.90 0.50 -1.05 0.30 -0.15 0.50 0.15 0.50 0.70 0 0.60 -0.20 1.05 -0.50 1.05 -0.25 0 -0.50 -0.30 -0.50 -0.70z"/>
  <path d="M30 23.30 c0 -1.95 -3.70 -6.30 -5.40 -6.30 -0.60 0 -0.65 -0.15 -0.20 -0.60 0.40 -0.40 1 -0.20 2.40 0.85 1.05 0.80 2.35 1.50 2.90 1.50 0.55 0.05 1.10 0.35 1.20 0.65 0.10 0.35 0.50 0.60 0.90 0.60 0.45 0 0.70 0.55 0.70 1.55 0 1.35 -0.10 1.50 -0.75 0.95 -0.65 -0.50 -0.75 -0.45 -0.75 0.45 0 0.55 -0.20 1.05 -0.50 1.05 -0.25 0 -0.50 -0.30 -0.50 -0.70z"/>
 </g>
 <g fill="#00ffc5">
  <path d="M29 81.30 c0 -0.65 0.30 -1.30 0.65 -1.45 0.50 -0.20 0.50 -0.35 0 -0.90 -0.75 -0.75 -0.85 -3.95 -0.15 -3.95 0.30 0 0.50 -0.45 0.50 -1 0 -0.55 0.25 -1 0.50 -1 0.30 0 0.50 -2.15 0.50 -5.45 0 -3.15 0.20 -5.60 0.50 -5.80 0.30 -0.15 0.50 -0.75 0.50 -1.25 0 -0.55 0.90 -1.85 2 -2.95 1.10 -1.10 2 -2.30 2 -2.70 0 -0.70 2 -1.85 3.25 -1.85 0.40 0 0.75 -0.15 0.75 -0.40 0 -0.20 0.80 -0.60 1.80 -0.90 1.50 -0.50 2.15 -0.45 3.65 0.20 l1.80 0.80 -1.90 0.30 c-1.40 0.20 -2.05 0.60 -2.60 1.70 -0.40 0.75 -0.75 1.45 -0.75 1.55 0 0.05 0.80 0.25 1.80 0.40 1.95 0.35 3.20 -0.40 3.20 -1.85 0 -0.45 0.25 -0.80 0.50 -0.80 0.30 0 0.50 -0.65 0.50 -1.50 l0 -1.50 3.50 0 c3.20 0 4.30 0.45 3 1.25 -0.70 0.45 -0.60 3.60 0.15 3.90 0.50 0.20 0.50 0.35 0 0.90 -0.35 0.35 -0.65 1.25 -0.65 1.95 0 0.70 -0.45 2.25 -1 3.40 -0.55 1.10 -1 2.75 -1 3.60 0 0.85 -0.45 2.50 -1 3.60 -0.55 1.15 -1 2.40 -1 2.75 0 0.35 -0.20 0.65 -0.50 0.65 -0.25 0 -0.50 0.40 -0.50 0.95 0 1.10 -3.80 5.55 -4.80 5.55 -0.40 0 -0.70 0.30 -0.70 0.65 0 0.40 -0.40 1.05 -0.90 1.50 -1.20 1.10 -3.60 1.15 -3.60 0.10 0 -0.50 -0.50 -0.75 -1.50 -0.75 -0.80 0 -1.50 -0.15 -1.50 -0.30 0 -0.20 0.70 -1 1.50 -1.80 0.85 -0.75 1.50 -1.50 1.50 -1.65 0 -0.15 -0.85 -0.25 -1.90 -0.25 -1.60 0 -2.05 0.25 -2.65 1.35 -0.55 1 -0.55 1.35 -0.05 1.50 0.30 0.15 0.60 0.85 0.60 1.55 0 1.05 -0.10 1.20 -0.50 0.60 -0.40 -0.60 -0.65 -0.65 -1.50 -0.10 -0.55 0.30 -1.65 0.60 -2.50 0.60 -1.25 0 -1.50 -0.20 -1.50 -1.20z m11.50 -6.55 c0.40 -0.70 0.50 -1.95 0.35 -2.95 -0.15 -1.05 -0.10 -1.80 0.20 -1.80 0.30 0 0.35 -0.45 0.20 -1 -0.15 -0.55 -0.10 -1 0.15 -1 0.20 0 0.75 -1.10 1.10 -2.50 0.35 -1.40 0.85 -2.50 1.10 -2.50 0.20 0 0.40 -0.45 0.40 -0.95 0 -0.55 0.20 -1.05 0.40 -1.15 0.75 -0.25 1.20 -2.90 0.50 -2.90 -0.90 0 -2.90 2.05 -2.90 3.05 0 0.50 -0.20 1.05 -0.50 1.20 -0.25 0.15 -0.50 0.85 -0.50 1.55 0 1.55 -1.15 5.20 -1.60 5.20 -0.25 0 -0.40 0.60 -0.40 1.30 0 0.80 -0.55 1.80 -1.25 2.50 -1.75 1.65 -1.35 3.60 0.70 3.30 0.85 -0.10 1.70 -0.70 2.05 -1.35z"/>
  <path d="M136.50 73.35 c0 -0.35 -0.50 -0.85 -1.10 -1.10 -1 -0.45 -1.15 -0.95 -1.30 -3.75 -0.20 -3.70 0.55 -5.50 2.20 -5.50 1.55 0 1.90 -0.75 1.75 -3.90 -0.05 -1.50 0.05 -2.90 0.30 -3.05 0.20 -0.15 0.65 -0.75 0.95 -1.30 1.05 -1.90 8.20 -4.75 8.20 -3.25 0 0.30 -0.70 0.50 -1.55 0.50 -2.65 0 -3.70 2.15 -2.35 4.65 0.90 1.75 1.75 2.35 3.25 2.35 l1.40 -0.05 -1.40 -1.20 c-1.60 -1.40 -1.40 -2.15 1.10 -4.40 l1.55 -1.35 1.25 1.10 c0.90 0.80 1.25 1.60 1.25 2.95 0 1.05 -0.30 2 -0.60 2.15 -0.50 0.25 -0.50 0.35 0 0.60 0.70 0.35 0.85 1.70 0.15 1.70 -0.25 0 -0.35 0.45 -0.20 1 0.15 0.60 -0.10 1.45 -0.55 1.95 -0.55 0.60 -0.85 1.95 -0.90 4.10 -0.10 3.45 -0.30 3.85 -2.85 5.10 -2.10 1.05 -3.05 1.10 -3.05 0.10 0 -0.40 -0.15 -0.75 -0.40 -0.75 -0.20 0 -0.65 -0.65 -1 -1.50 -0.40 -0.90 -1.05 -1.50 -1.60 -1.50 -0.50 0 -1 -0.30 -1.15 -0.60 -0.10 -0.40 -0.40 -0.45 -0.65 -0.20 -0.25 0.25 -0.20 0.55 0.20 0.65 0.30 0.15 0.60 1 0.60 1.90 0 1.20 -0.35 1.85 -1.25 2.45 -1.45 0.95 -2.25 1 -2.25 0.15z"/>
  <path d="M55.40 73 c-0.70 -0.45 -0.80 -1.25 -0.65 -5.60 0.10 -2.75 0.45 -5.30 0.70 -5.55 0.30 -0.30 0.55 -0.90 0.55 -1.35 0 -0.45 0.90 -1.70 2 -2.75 1.10 -1.05 2 -2.20 2 -2.50 0 -0.80 3.35 -3.25 4.50 -3.25 0.55 0 1.20 -0.40 1.35 -0.90 0.50 -1.30 1.15 -1.60 3.80 -1.60 2.20 0 2.35 0.05 1.60 0.80 -0.45 0.45 -0.65 1.20 -0.50 1.75 0.25 0.80 0.05 0.95 -1.15 0.95 -1.60 0 -2.25 0.55 -3.05 2.60 -0.45 1.15 -0.40 1.30 0.25 1.05 0.45 -0.15 1 0 1.25 0.40 0.30 0.50 0.45 0.50 0.45 0.10 0 -0.35 0.35 -0.50 0.75 -0.35 0.90 0.35 2.75 -2.55 2.75 -4.40 0 -1.40 0 -1.40 3.50 -1.40 3.15 0 3.50 0.10 3.50 1 0 0.55 -0.20 1 -0.50 1 -0.25 0 -0.50 0.70 -0.50 1.50 0 0.85 0.25 1.50 0.50 1.50 0.60 0 0.65 1.20 0.05 2.40 -0.80 1.60 -2.55 6.35 -2.55 7 0 0.30 -0.20 0.60 -0.50 0.60 -0.25 0 -0.50 0.45 -0.50 0.95 0 0.55 -0.20 1.10 -0.50 1.30 -0.25 0.15 -0.35 0.55 -0.20 0.90 0.10 0.35 -0.35 1.20 -1.05 1.95 -0.70 0.75 -1.25 1.60 -1.25 1.90 0 0.30 -1.25 0.50 -3.05 0.50 l-3.10 0 0.35 -1.95 c0.15 -1.15 0.10 -2.10 -0.20 -2.30 -0.55 -0.35 -0.15 -2.70 0.55 -3.45 0.25 -0.30 0.45 -1 0.45 -1.65 0 -0.65 0.15 -1.15 0.40 -1.15 0.40 0 1.60 -2.45 1.60 -3.35 0 -0.35 0.25 -0.65 0.50 -0.65 0.30 0 0.50 -0.20 0.50 -0.50 0 -1.05 -1.95 -0.45 -2.90 0.90 -1 1.50 -2.25 4.35 -2.10 4.90 0.05 0.20 -0.15 0.50 -0.40 0.65 -0.90 0.55 -2.60 4.75 -2.60 6.35 0 1 -0.30 1.70 -0.80 1.90 -1.20 0.45 -4.85 0.35 -5.80 -0.20z"/>
  <path d="M80.80 72.75 c0.20 -0.55 0 -0.75 -0.80 -0.75 -0.70 0 -1 -0.25 -0.80 -0.60 0.15 -0.35 0.45 -1.05 0.60 -1.50 0.20 -0.50 0.50 -0.90 0.75 -0.90 0.25 0 0.45 -0.55 0.45 -1.20 0 -0.70 0.25 -1.40 0.50 -1.55 0.30 -0.15 0.50 -1.20 0.50 -2.30 0 -1.05 0.25 -1.95 0.50 -1.95 0.30 0 0.50 -0.45 0.50 -0.95 0 -0.55 0.25 -1.15 0.50 -1.30 0.30 -0.15 0.50 -0.85 0.50 -1.55 0 -0.65 0.25 -1.20 0.50 -1.20 0.30 0 0.50 -0.45 0.50 -0.95 0 -0.55 0.25 -1.15 0.55 -1.35 0.30 -0.15 0.45 -1 0.35 -1.80 -0.15 -0.80 -0.05 -1.55 0.20 -1.70 0.75 -0.45 2.60 0.20 3.95 1.35 1.10 0.95 1.20 1.35 1.20 5.85 0 2.70 0.20 5.15 0.40 5.50 0.25 0.35 0 1.15 -0.60 1.90 -0.60 0.75 -1.05 1.75 -1.05 2.25 0 0.55 -0.20 0.95 -0.50 0.95 -0.25 0 -0.50 0.35 -0.50 0.75 0 0.45 -0.35 1.45 -0.75 2.25 -0.75 1.45 -0.90 1.50 -4.25 1.50 -2.90 0 -3.40 -0.15 -3.20 -0.75z"/>
  <path d="M92 72.75 c0 -0.40 -0.35 -0.75 -0.75 -0.75 -0.60 0 -0.70 -0.35 -0.45 -1.35 0.20 -0.80 0.55 -1.45 0.80 -1.55 0.20 -0.10 0.40 -1.05 0.40 -2.15 0 -1.05 0.25 -1.95 0.50 -1.95 0.30 0 0.50 -0.35 0.50 -0.75 0 -0.45 0.60 -1.90 1.30 -3.30 0.75 -1.35 1.20 -2.60 1.05 -2.80 -0.20 -0.15 0.10 -0.90 0.65 -1.65 0.60 -0.85 1 -2.20 1 -3.45 0 -1.80 0.15 -2.05 1.15 -2.05 0.65 0 1.75 0.30 2.50 0.65 1.50 0.65 1.50 0.80 1.40 10.70 -0.05 4.60 -0.20 5.30 -1.30 6.95 -0.70 1.05 -1.40 2.40 -1.55 3.05 -0.30 1.05 -0.55 1.15 -3.75 1.15 -2.75 0 -3.45 -0.15 -3.45 -0.75z"/>
  <path d="M103 69.30 c0 -2.35 0.25 -4.40 0.50 -4.55 0.30 -0.15 0.50 -0.85 0.50 -1.55 0 -0.65 0.15 -1.20 0.40 -1.20 0.55 0 1.55 -2.50 1.30 -3.20 -0.10 -0.30 0.35 -1.15 1.05 -1.80 1 -0.95 1.25 -1.65 1.25 -3.60 0 -2.30 0.05 -2.40 1.40 -2.40 2.05 0 4.60 2.80 4.60 5.05 0 0.95 -0.25 2 -0.55 2.30 -0.40 0.40 -0.40 0.65 0 0.85 0.70 0.45 0.70 3.15 0.05 3.55 -0.25 0.15 -0.50 0.85 -0.50 1.50 0 0.65 -0.20 1.35 -0.50 1.50 -0.25 0.15 -0.50 0.95 -0.50 1.80 0 0.80 -0.25 1.45 -0.55 1.45 -0.30 0 -0.40 0.35 -0.25 0.85 0.20 0.50 -0.15 1.30 -1.05 2.25 -1.15 1.20 -1.70 1.40 -4.25 1.40 l-2.90 0 0 -4.20z"/>
  <path d="M117.60 72.10 c-1.55 -1.40 -1.60 -1.55 -1.60 -5.75 0 -2.35 0.25 -4.45 0.50 -4.60 0.30 -0.15 0.50 -0.70 0.50 -1.20 0 -0.50 0.80 -1.80 1.80 -2.85 0.95 -1.10 2.15 -2.55 2.60 -3.30 0.50 -0.85 1.25 -1.40 1.95 -1.40 0.60 0 1.25 -0.20 1.40 -0.50 0.15 -0.25 0.85 -0.50 1.50 -0.50 0.65 0 1.75 -0.25 2.45 -0.55 0.95 -0.45 1.60 -0.45 2.80 0.05 0.80 0.35 1.50 0.80 1.50 1.05 0 0.25 0.45 0.45 1 0.45 0.85 0 1 0.35 1 2.40 0 1.30 -0.25 2.65 -0.60 3 -0.45 0.45 -0.45 0.60 -0.05 0.60 0.35 0 0.60 0.80 0.55 2 0 1.10 -0.20 2 -0.45 2 -0.25 0 -0.45 0.30 -0.45 0.65 0 0.30 -0.40 1.05 -0.80 1.60 -0.75 0.95 -0.80 0.90 -0.60 -0.80 0.20 -1.80 0.20 -1.80 -1.35 -1.40 -2.20 0.65 -2.50 0.55 -1.50 -0.55 0.95 -1.05 0.65 -2.10 -0.35 -1.10 -0.35 0.35 -1.35 0.60 -2.25 0.60 -1.15 0 -1.75 0.25 -1.95 0.90 -0.15 0.45 -0.70 1.65 -1.25 2.65 -1.70 3.30 -1.05 5.45 1.65 5.45 0.75 0 1.40 0.25 1.40 0.50 0 0.30 -0.90 0.50 -2 0.50 -1.45 0 -2 0.20 -2 0.75 0 1.40 -3.60 0.95 -5.40 -0.65z m11.40 -13.30 c0 -0.10 0.15 -0.55 0.30 -1 0.45 -1.15 -0.65 -1 -1.30 0.20 -0.45 0.80 -0.40 1 0.25 1 0.40 0 0.75 -0.10 0.75 -0.20z m0.15 -2.35 c1.75 -0.45 1.85 -0.60 1.85 -2.45 0 -1.75 -0.15 -2 -1.10 -2 -1.80 0.05 -3.90 2.35 -3.90 4.25 0 0.90 0.60 0.95 3.15 0.20z"/>
  <path d="M153.75 46.50 c0.15 -0.25 0.65 -0.50 1.05 -0.50 0.40 0 0.70 0.25 0.70 0.50 0 0.30 -0.45 0.50 -1.05 0.50 -0.55 0 -0.85 -0.20 -0.70 -0.50z"/>
  <path d="M30.85 45.05 c-0.25 -1 0.45 -2.55 1.15 -2.55 0.30 0 0.50 0.80 0.50 1.75 0 1.90 -1.20 2.50 -1.65 0.80z"/>
 </g>
 <g fill="#000000">
  <path d="M104.10 75.35 c-1.45 -1.55 -1.40 -2.35 0.15 -2.35 1.10 0 1.25 0.20 1.25 1.75 0 0.95 -0.05 1.75 -0.15 1.75 -0.10 0 -0.65 -0.50 -1.25 -1.15z"/>
  <path d="M137.15 75.65 c-0.65 -0.40 -1.15 -0.95 -1.15 -1.20 0 -0.80 0.75 -0.45 1.65 0.80 1.05 1.45 1 1.45 -0.50 0.40z"/>
  <path d="M55.85 75.10 c-1.20 -1.30 -1.05 -2.10 0.40 -2.10 1.05 0 1.25 0.25 1.25 1.50 0 1.70 -0.50 1.90 -1.65 0.60z"/>
  <path d="M61 70.30 c0 -0.40 0.25 -0.90 0.50 -1.05 0.30 -0.15 0.50 -0.75 0.50 -1.30 0 -0.50 0.25 -0.95 0.50 -0.95 0.30 0 0.50 0.30 0.50 0.70 0 0.40 -0.20 0.90 -0.50 1.05 -0.25 0.15 -0.50 0.75 -0.50 1.30 0 0.50 -0.20 0.95 -0.50 0.95 -0.25 0 -0.50 -0.30 -0.50 -0.70z"/>
  <path d="M110.65 66.90 c0.85 -2.05 1.65 -3.40 2 -3.40 0.65 0 0.35 1.85 -0.40 2.50 -0.40 0.35 -0.60 0.80 -0.45 1.05 0.15 0.25 -0.10 0.45 -0.55 0.45 -0.50 0 -0.75 -0.25 -0.60 -0.60z"/>
  <path d="M123.15 64.90 c0.10 -1.45 0.30 -1.90 1 -1.90 1.10 0 1.05 0.95 -0.15 2.50 l-0.95 1.25 0.10 -1.85z"/>
  <path d="M101 64.35 c0 -0.35 0.35 -1.10 0.80 -1.65 0.70 -0.85 0.75 -0.85 0.50 -0.05 -0.15 0.50 -0.30 1.25 -0.30 1.65 0 0.40 -0.20 0.70 -0.50 0.70 -0.25 0 -0.50 -0.30 -0.50 -0.65z"/>
  <path d="M90 63.55 c0 -1.50 0.70 -1.60 1.35 -0.25 0.50 1.05 0.45 1.20 -0.40 1.20 -0.60 0 -0.95 -0.35 -0.95 -0.95z"/>
  <path d="M52 60.40 c0 -0.35 0.35 -1.10 0.75 -1.60 0.40 -0.55 0.75 -1.40 0.75 -1.90 0 -0.50 0.35 -0.90 0.75 -0.90 0.85 0 1 0.80 0.25 1.25 -0.25 0.15 -0.50 1.10 -0.50 2.05 0 1.35 -0.20 1.70 -1 1.70 -0.55 0 -1 -0.30 -1 -0.60z"/>
  <path d="M67.90 51.15 c-2.15 -0.25 -2.35 -0.60 -0.90 -1.55 0.55 -0.35 1 -1.05 1 -1.60 0 -0.65 0.35 -1 1 -1 0.55 0 1.25 -0.45 1.60 -1 1 -1.55 1.40 -1.20 1.40 1.25 0 2 -1.15 4.45 -2 4.15 -0.15 -0.05 -1.10 -0.15 -2.10 -0.25z"/>
  <path d="M14 45.50 c0 -1.95 0.15 -2.50 0.80 -2.50 0.55 0 0.70 0.25 0.50 0.80 -0.15 0.45 -0.30 1.55 -0.30 2.50 0 0.95 -0.20 1.70 -0.50 1.70 -0.25 0 -0.50 -1.10 -0.50 -2.50z"/>
  <path d="M51.75 47.50 c-0.20 -0.30 0.25 -0.50 0.95 -0.50 0.70 0 1.30 0.25 1.30 0.50 0 0.30 -0.45 0.50 -0.95 0.50 -0.55 0 -1.15 -0.20 -1.30 -0.50z"/>
  <path d="M85.50 47.50 c-0.50 -0.35 0.80 -0.50 4.15 -0.50 2.90 0 4.85 0.20 4.85 0.50 0 0.65 -8 0.65 -9 0z"/>
  <path d="M102.75 47.50 c-0.20 -0.30 1.60 -0.50 4.95 -0.50 3.20 0 5.30 0.20 5.30 0.50 0 0.30 -2 0.50 -4.95 0.50 -2.80 0 -5.15 -0.20 -5.30 -0.50z"/>
  <path d="M116 47.50 c0 -0.30 3.20 -0.50 8.55 -0.50 5.55 0 8.40 0.15 8.20 0.50 -0.20 0.30 -3.60 0.50 -8.55 0.50 -5.15 0 -8.20 -0.20 -8.20 -0.50z"/>
  <path d="M134 47.50 c0 -0.30 3.50 -0.50 9.65 -0.45 5.80 0 9.20 0.20 8.60 0.45 -1.45 0.60 -18.25 0.60 -18.25 0z"/>
  <path d="M30.40 47.20 c0.30 -0.15 0.60 -1.15 0.60 -2.15 0 -1.20 0.35 -2.20 0.95 -2.75 1 -0.90 2.15 -4.50 1.90 -5.85 -0.25 -1.50 -2.05 -5.45 -2.45 -5.45 -0.20 0 -0.40 -0.25 -0.40 -0.60 0 -0.45 0.15 -0.45 0.60 0 0.35 0.35 0.95 0.60 1.40 0.60 1.75 0 4 4.60 4 8.10 0 3.30 -3.05 7.55 -5.75 8.10 -0.80 0.15 -1.20 0.15 -0.85 0z"/>
  <path d="M96 46.85 c0 -0.15 0.60 -0.95 1.30 -1.70 0.95 -1 1.20 -1.10 0.80 -0.35 -0.55 1.05 -2.10 2.55 -2.10 2.05z"/>
  <path d="M154 46.50 c0 -0.25 0.30 -0.50 0.65 -0.50 0.40 0 1.10 -0.45 1.60 -1 0.50 -0.55 1.20 -1 1.60 -1 1.25 0 3.70 -2.20 4.45 -3.95 0.85 -2 1 -15.30 0.20 -15.80 -0.25 -0.15 -0.50 -0.65 -0.50 -1.05 0 -0.35 -0.70 -1.35 -1.60 -2.20 -0.85 -0.85 -1.45 -1.60 -1.30 -1.75 0.40 -0.40 2.90 1 2.90 1.65 0 0.35 0.45 1.10 1 1.70 0.50 0.55 1.65 2.40 2.50 4 1.30 2.60 1.50 3.50 1.50 6.90 0 2.15 -0.20 4.10 -0.50 4.25 -0.25 0.15 -0.50 0.90 -0.50 1.65 -0.05 0.90 -0.75 2.05 -2 3.35 -1.10 1.10 -2 2.30 -2 2.65 0 0.30 -0.45 0.60 -1 0.60 -0.55 0 -1 0.25 -1 0.50 0 0.30 -1.35 0.50 -3 0.50 -1.65 0 -3 -0.20 -3 -0.50z"/>
  <path d="M50.65 46.15 c-0.35 -0.10 -0.65 -0.55 -0.65 -0.95 0 -0.40 -0.50 -1.20 -1.10 -1.80 -1.05 -1.05 -1.05 -1.45 -1.05 -12.45 0 -12.15 0.15 -12.95 2.45 -12.95 0.60 0 1.25 -0.20 1.40 -0.45 0.15 -0.25 0.85 -0.55 1.55 -0.65 1.30 -0.30 1.20 0.40 -0.30 1.45 -1.25 0.90 -1.55 3.35 -1.80 13.50 -0.20 8.50 -0.25 9.10 -1.15 9.40 -0.55 0.20 -1 0.65 -1 1.05 0 0.80 0.60 0.90 1.30 0.25 0.90 -0.90 2.10 0.60 1.80 2.35 -0.20 1.60 -0.35 1.75 -1.45 1.25z"/>
  <path d="M20.35 45.70 c-0.20 -0.20 -0.35 -0.70 -0.35 -1.15 0 -0.55 0.15 -0.60 0.55 -0.20 0.30 0.30 0.50 0.80 0.35 1.15 -0.10 0.30 -0.35 0.40 -0.55 0.20z"/>
  <path d="M85.45 44.80 c-2 -1.75 -2.60 -6.15 -2.35 -17.05 0.10 -4.95 0.40 -9.40 0.60 -9.85 0.35 -0.75 1.10 -0.90 4.35 -0.90 4.25 0 5.50 0.85 1.60 1.10 l-2.40 0.15 -0.15 12.90 c-0.05 8.45 0.05 12.85 0.40 12.85 0.25 0 0.50 0.45 0.50 1 0 1.30 -0.95 1.25 -2.55 -0.20z"/>
  <path d="M108 45 c0 -0.55 0.25 -1 0.50 -1 0.30 0 0.50 -0.45 0.50 -1 0 -0.55 0.25 -1 0.50 -1 0.65 0 0.65 1.85 -0.05 2.25 -0.30 0.20 -0.40 0.65 -0.25 1.05 0.15 0.40 -0.05 0.70 -0.45 0.70 -0.40 0 -0.75 -0.45 -0.75 -1z"/>
  <path d="M127.10 44.50 c-0.60 -0.80 -1.10 -1.80 -1.10 -2.20 0 -0.40 -0.25 -1.40 -0.55 -2.15 -1.35 -3.35 -2.55 -6.75 -3.05 -8.90 -1 -4.05 -1.60 -6 -1.90 -6.50 -0.20 -0.25 -0.50 -1.35 -0.65 -2.40 -0.15 -1.05 -0.65 -2.60 -1.05 -3.45 -1 -2 -1.05 -1.90 0.60 -1.90 1.60 0 2.60 1.70 2.60 4.60 0 1.05 0.45 2.90 1 4.15 0.55 1.25 1.45 3.25 2 4.50 0.55 1.25 1 2.80 1 3.50 0 1.20 0.15 1.65 1.40 4.10 0.35 0.65 0.60 1.60 0.60 2.15 0 0.55 0.25 1 0.50 1 0.30 0 0.50 0.55 0.50 1.20 0 0.70 0.25 1.40 0.50 1.55 0.30 0.15 0.50 0.75 0.50 1.30 0 1.45 -1.65 1.15 -2.90 -0.55z"/>
  <path d="M144 31.50 l0 -14.50 3.05 0 c1.85 0 2.90 0.20 2.70 0.50 -0.15 0.30 -0.65 0.50 -1.05 0.50 -0.60 0 -0.70 2.15 -0.70 14 l0 14 -2 0 -2 0 0 -14.50z"/>
  <path d="M62.90 45.15 c-1.30 -0.30 -1.10 -1.80 0.35 -3.15 0.70 -0.65 1.90 -2.45 2.65 -3.95 1.20 -2.45 1.35 -3.35 1.30 -7.45 0 -2.80 -0.25 -4.85 -0.60 -5.20 -0.35 -0.35 -0.60 -1 -0.60 -1.50 0 -0.50 -0.45 -1.15 -1 -1.50 -0.55 -0.35 -1 -0.85 -1 -1.10 0 -0.25 -0.35 -0.90 -0.85 -1.40 -0.65 -0.70 -0.65 -0.90 -0.10 -0.90 0.75 0.05 2.95 1.70 2.95 2.20 0 0.20 0.90 1.15 2 2.15 1.20 1.10 2 2.30 2 2.95 0 0.65 0.25 1.30 0.50 1.45 0.30 0.15 0.50 2.15 0.50 4.45 0 4.25 -0.85 7.10 -2.30 7.65 -0.40 0.15 -0.70 0.65 -0.70 1.10 0 0.75 -3.45 4.65 -4 4.50 -0.15 -0.05 -0.65 -0.15 -1.10 -0.30z"/>
  <path d="M15.90 41.75 c-1.80 -2 -1.90 -2.30 -1.90 -5.45 0 -1.80 0.20 -3.30 0.40 -3.30 0.25 0 0.75 1.10 1.10 2.50 0.35 1.40 0.85 2.50 1.10 2.50 0.20 0 0.40 0.45 0.40 1 0 0.55 0.45 1.75 1 2.75 1.15 2.10 1.20 2.25 0.40 2.20 -0.35 0 -1.50 -1 -2.50 -2.20z"/>
  <path d="M99 42 c0 -0.55 0.25 -1 0.50 -1 0.30 0 0.50 0.45 0.50 1 0 0.55 -0.20 1 -0.50 1 -0.25 0 -0.50 -0.45 -0.50 -1z"/>
  <path d="M110 40 c0 -0.55 0.25 -1 0.50 -1 0.30 0 0.50 0.45 0.50 1 0 0.55 -0.20 1 -0.50 1 -0.25 0 -0.50 -0.45 -0.50 -1z"/>
  <path d="M100 28.85 c0 -9.05 -0.05 -9.65 -1 -10.25 -1.80 -1.10 -1.05 -1.60 2.50 -1.60 2 0 3.50 0.20 3.50 0.50 0 0.30 -0.50 0.50 -1.10 0.50 -0.65 0 -1.55 0.35 -2 0.70 -0.80 0.60 -0.90 1.70 -0.90 10.25 0 6.05 -0.20 9.55 -0.50 9.55 -0.30 0 -0.50 -3.55 -0.50 -9.65z"/>
  <path d="M34 26.50 c0 -0.80 -0.20 -1.50 -0.50 -1.50 -0.25 0 -0.50 -0.30 -0.50 -0.65 0 -0.40 -0.45 -1.10 -1 -1.60 -1.55 -1.40 -1.30 -2.75 0.50 -2.75 1.40 0 1.50 -0.10 1.50 -2 0 -1.10 0.25 -2 0.50 -2 0.30 0 0.50 2.35 0.50 6 0 3.65 -0.20 6 -0.50 6 -0.25 0 -0.50 -0.65 -0.50 -1.50z"/>
  <path d="M19.75 24 c-1.35 -0.55 -2.85 -2.40 -2.65 -3.35 0.10 -0.45 0.95 -1.25 1.90 -1.80 0.95 -0.50 1.85 -1.15 2 -1.35 0.15 -0.20 0.80 -0.55 1.50 -0.75 l1.25 -0.35 -1.25 0.90 c-0.70 0.50 -1.50 1.25 -1.85 1.70 -0.80 0.95 -0.85 3.85 -0.05 4.10 0.30 0.10 0.45 0.45 0.35 0.75 -0.10 0.30 -0.60 0.35 -1.20 0.15z"/>
 </g>
 <g fill="#00795e">
  <path d="M32.50 86.55 c0 -0.30 0.70 -0.55 1.50 -0.55 1.10 0 2 -0.50 3.25 -1.85 0.95 -1 1.75 -2.10 1.75 -2.40 0 -0.30 0.50 -0.75 1.15 -1 0.60 -0.30 1.30 -1 1.60 -1.60 0.25 -0.65 0.70 -1.15 1 -1.15 0.25 0 1.30 -0.75 2.30 -1.70 1.65 -1.55 2.35 -2.70 4.25 -7.15 0.45 -1.05 1.10 -2.50 1.50 -3.25 0.40 -0.75 0.90 -2.50 1.05 -3.90 0.15 -1.35 0.45 -2.50 0.65 -2.50 0.45 0 1.15 -1.95 1.05 -2.85 -0.05 -0.35 0.25 -0.65 0.70 -0.65 0.85 0 1 0.80 0.25 1.25 -0.25 0.15 -0.50 0.95 -0.50 1.70 0 0.75 -0.45 2.30 -1 3.45 -0.55 1.10 -1 3.05 -1 4.35 0 1.25 -0.20 2.25 -0.50 2.25 -0.25 0 -0.50 0.45 -0.50 1 0 0.55 -0.20 1 -0.50 1 -0.25 0 -0.50 0.45 -0.50 1 0 0.55 -0.20 1 -0.50 1 -0.25 0 -0.50 0.45 -0.50 0.95 0 0.55 -0.20 1.15 -0.50 1.30 -0.25 0.15 -0.50 0.85 -0.50 1.55 0 0.65 -0.20 1.20 -0.45 1.20 -0.25 0 -0.70 0.60 -1 1.40 -0.30 0.75 -1.10 1.60 -1.70 1.85 -0.60 0.30 -1.30 1 -1.60 1.65 -0.25 0.60 -0.80 1.10 -1.20 1.10 -0.35 0 -1.05 0.40 -1.50 0.90 -0.45 0.55 -1.80 1.10 -3.05 1.25 -1.25 0.20 -2.85 0.45 -3.60 0.65 -0.90 0.20 -1.40 0.10 -1.40 -0.25z"/>
  <path d="M29.80 84.25 c-0.85 -1.30 -1.10 -4.25 -0.35 -4.25 0.25 0 0.55 0.30 0.70 0.65 0.20 0.50 0.35 0.50 0.90 0 0.35 -0.35 1.40 -0.65 2.30 -0.65 1.60 0 1.65 0.05 1.65 2 0 1.90 -0.10 2 -1.45 2 -0.80 0 -1.80 0.35 -2.20 0.75 -0.65 0.65 -0.85 0.60 -1.55 -0.50z"/>
  <path d="M34.65 75 c-0.75 -1.65 -1.15 -2 -2.25 -2 -1.30 0 -1.40 -0.15 -1.40 -1.85 l0.05 -1.90 1 1.40 c0.90 1.15 1.40 1.35 3.55 1.35 2.20 0 2.45 0.10 2.15 0.90 -0.95 2.20 -0.90 3.10 0.20 3.10 0.55 0 1.05 0.25 1.05 0.50 0 0.30 -0.80 0.50 -1.75 0.50 -1.55 0 -1.85 -0.20 -2.60 -2z"/>
  <path d="M56.65 75.60 c-1.75 -1.50 -2.55 -4.45 -1.70 -5.95 0.45 -0.80 0.50 -0.80 0.55 -0.05 0 1.30 2 2.40 4.35 2.40 1.20 0 2.15 0.25 2.15 0.50 0 0.30 -0.20 0.50 -0.50 0.50 -0.25 0 -0.50 0.70 -0.50 1.50 0 0.85 0.25 1.50 0.50 1.50 0.30 0 0.50 0.25 0.50 0.50 0 0.30 -0.85 0.50 -1.90 0.50 -1.40 0 -2.35 -0.40 -3.45 -1.40z"/>
  <path d="M67.05 75.55 c-1.05 -1.50 -1.40 -4.25 -0.60 -4.75 0.25 -0.15 0.55 0.05 0.75 0.45 0.20 0.50 1 0.75 2.55 0.75 l2.25 0 0 2.50 0 2.50 -1.95 0 c-1.60 0 -2.15 -0.25 -3 -1.45z"/>
  <path d="M79.10 76.65 c0.10 -0.25 0.60 -1.35 1.10 -2.50 0.85 -2.05 0.95 -2.10 3.40 -2.25 l2.50 -0.15 1.95 -3.75 c1.10 -2.05 1.95 -4.15 1.95 -4.70 0 -1 0 -1 1.05 0.05 1.05 1 1.05 1.15 0.25 1.90 -0.45 0.50 -1 1.50 -1.15 2.30 -0.15 0.80 -0.45 1.45 -0.70 1.45 -0.25 0 -0.45 0.45 -0.45 1.05 0 0.55 -0.40 1.65 -0.90 2.35 -0.55 0.75 -1.25 2.10 -1.65 3 -0.70 1.60 -0.75 1.60 -4.10 1.60 -1.90 0 -3.35 -0.15 -3.25 -0.35z"/>
  <path d="M90.50 76.60 c0 -0.20 0.35 -0.85 0.75 -1.40 0.40 -0.50 0.75 -1.45 0.75 -2.05 0 -1.05 0.25 -1.15 2.75 -1.15 2.20 0 2.85 -0.20 3.05 -0.85 0.50 -1.55 1.40 -3.35 2.30 -4.75 0.50 -0.70 0.90 -1.65 0.90 -2.10 0 -0.45 0.20 -0.80 0.45 -0.80 0.90 0 0.45 4.20 -0.50 5.45 -0.55 0.65 -0.95 1.60 -0.95 2.10 0 0.55 -0.20 0.95 -0.50 0.95 -0.25 0 -0.50 0.40 -0.55 0.90 0 0.45 -0.40 1.55 -0.90 2.35 -0.80 1.40 -1.10 1.50 -4.20 1.65 -1.85 0.10 -3.35 -0.05 -3.35 -0.30z"/>
  <path d="M104.50 75.75 c-0.35 -0.70 -0.85 -1.25 -1.10 -1.25 -0.20 0 -0.40 -1.05 -0.40 -2.35 0 -2.30 0.05 -2.35 0.80 -1.25 0.65 0.90 1.25 1.10 3.60 1.10 2.15 0 2.65 0.15 2.20 0.60 -0.90 0.90 -0.75 3.40 0.20 3.40 0.40 0 0.60 0.25 0.45 0.50 -0.15 0.30 -1.40 0.50 -2.70 0.50 -2.05 0 -2.50 -0.20 -3.05 -1.25z"/>
  <path d="M119.35 75.60 c-2.30 -1.65 -3.45 -3.75 -3.25 -5.95 l0.15 -1.60 2.20 1.95 c1.25 1.15 2.75 2 3.40 2 0.95 0 1.15 0.25 1.15 1.40 0 1.80 0.80 2.60 2.60 2.60 0.75 0 1.40 0.25 1.40 0.50 0 0.30 -1.30 0.50 -2.85 0.50 -2.35 -0.05 -3.25 -0.30 -4.80 -1.40z"/>
  <path d="M143 76.35 c0 -0.35 0.20 -0.85 0.45 -1.10 0.25 -0.30 0.55 -1.15 0.65 -2 0.10 -1.10 0.55 -1.70 1.65 -2.20 0.80 -0.40 1.80 -1 2.15 -1.40 1.15 -1.10 2.10 -0.75 2.10 0.75 0 1.65 -1.35 4.60 -2.05 4.60 -0.30 0 -1.45 0.45 -2.55 1 -2.45 1.20 -2.40 1.15 -2.40 0.35z"/>
  <path d="M135.95 75.15 c-1.05 -0.25 -1.95 -2.30 -1.95 -4.40 0 -2 0.45 -2.20 1.75 -0.75 0.50 0.55 1.20 1 1.60 1 0.35 0 0.65 0.35 0.65 0.75 0 0.90 0.60 0.95 1.40 0.15 0.45 -0.45 0.60 -0.45 0.60 -0.05 0 0.35 -0.70 1 -1.50 1.50 -0.85 0.50 -1.40 1.15 -1.30 1.50 0.25 0.65 0.15 0.70 -1.25 0.30z"/>
  <path d="M72 70.15 c0 -1.25 0.80 -3.40 3.05 -7.80 0.50 -1.10 0.95 -2.25 0.95 -2.65 0 -0.40 0.20 -0.70 0.40 -0.70 0.20 0 0.65 -0.65 0.95 -1.50 0.30 -0.80 0.80 -1.50 1.10 -1.50 0.70 0 0.70 1.85 0.05 2.25 -0.25 0.15 -0.50 0.85 -0.50 1.50 0 0.70 -0.45 1.95 -1 2.85 -0.55 0.90 -1 2.05 -1 2.55 0 0.45 -0.20 0.85 -0.50 0.85 -0.25 0 -0.50 0.35 -0.50 0.75 0 0.70 -2.40 4.75 -2.80 4.75 -0.10 0 -0.20 -0.60 -0.20 -1.35z"/>
  <path d="M37.20 70.45 c-0.15 -0.30 -0.05 -0.80 0.25 -1.10 0.30 -0.30 0.55 -0.85 0.55 -1.20 0 -0.35 0.70 -2.05 1.50 -3.75 0.85 -1.70 1.50 -3.75 1.50 -4.60 0.05 -2.45 1.10 -3.50 3.20 -3.10 1.85 0.35 2.50 1.30 0.90 1.30 -1 0 -3.10 1.95 -3.10 2.85 0 0.30 -0.35 1.15 -0.70 1.95 -0.40 0.75 -0.65 1.55 -0.50 1.80 0.35 0.55 -0.90 4.05 -1.65 4.55 -0.35 0.20 -0.50 0.70 -0.35 1.10 0.35 0.85 -1.05 1.05 -1.60 0.20z"/>
  <path d="M61 70.25 c0 -0.40 0.25 -0.75 0.50 -0.75 0.30 0 0.50 0.35 0.50 0.75 0 0.40 -0.20 0.75 -0.50 0.75 -0.25 0 -0.50 -0.35 -0.50 -0.75z"/>
  <path d="M109.25 70.55 c-0.15 -0.25 0.40 -1.80 1.25 -3.35 0.80 -1.60 1.50 -3.40 1.50 -4 0 -1.45 1.25 -4.30 1.65 -3.85 0.55 0.50 0.40 3.05 -0.15 3.40 -0.25 0.15 -0.50 0.85 -0.50 1.45 0 0.65 -0.30 1.45 -0.70 1.75 -0.40 0.35 -0.60 1.05 -0.40 1.65 0.15 0.65 -0.05 1.20 -0.55 1.50 -0.45 0.20 -0.70 0.75 -0.55 1.15 0.35 0.80 -1.05 1.05 -1.55 0.30z"/>
  <path d="M138.10 70.40 c-0.95 -0.95 -0.70 -1.40 0.65 -1.40 1.15 0 1.25 -0.20 1.25 -2.25 0 -1.60 -0.30 -2.55 -1.05 -3.30 -0.55 -0.55 -0.90 -1.15 -0.80 -1.30 0.45 -0.40 2.35 0.85 2.35 1.55 0 0.40 0.55 1.05 1.20 1.45 1.40 0.95 1.95 2.80 1.35 4.45 -0.40 1 -0.50 1.05 -0.80 0.30 -0.50 -1.25 -2.25 -1.15 -2.25 0.10 0 1.10 -1 1.30 -1.90 0.40z"/>
  <path d="M62 66.85 c0 -0.90 0.45 -2.50 1 -3.60 0.55 -1.10 1 -2.20 1 -2.45 0 -1.05 2.70 -4.30 3.55 -4.30 2.25 0 3.35 1.30 1.35 1.60 -1.20 0.15 -3.85 4.30 -3.90 6.05 0 0.45 -0.20 0.85 -0.45 0.85 -0.25 0 -0.75 0.80 -1.10 1.75 -0.80 2.20 -1.45 2.25 -1.45 0.10z"/>
  <path d="M123 66.15 c0 -0.65 0.25 -1.15 0.50 -1.15 0.35 0 0.35 -0.30 0 -1 -0.30 -0.60 -0.35 -1.35 -0.10 -1.85 0.25 -0.50 0.85 -1.75 1.35 -2.75 0.55 -1.20 1.40 -2.05 2.40 -2.35 1.85 -0.70 3.60 -0.70 2 -0.05 -0.65 0.25 -1.15 0.65 -1.15 0.85 0 0.25 -0.80 1.25 -1.80 2.30 -1 1 -1.60 1.85 -1.30 1.85 0.65 0 0.15 1.85 -1 3.75 -0.80 1.35 -0.90 1.40 -0.90 0.40z"/>
  <path d="M125.50 66.50 c0 -0.25 0.30 -0.50 0.70 -0.50 0.40 0 1.65 -1.10 2.80 -2.50 1.15 -1.35 2.40 -2.50 2.80 -2.50 0.35 0 0.90 -0.45 1.20 -1 0.95 -1.75 2 -1.20 2 1 0 1.10 -0.15 2 -0.40 2 -0.20 0 -0.65 0.70 -1 1.50 -0.55 1.25 -1 1.50 -2.35 1.50 -0.95 0 -1.85 0.25 -2 0.50 -0.15 0.30 -1.10 0.50 -2.05 0.50 -0.95 0 -1.70 -0.20 -1.70 -0.50z"/>
  <path d="M150 63.40 c0 -0.40 -0.45 -1.15 -1.05 -1.70 -0.55 -0.50 -1.25 -1.35 -1.50 -1.80 -0.45 -0.80 -0.20 -0.90 2.05 -0.90 l2.50 0 0 1.65 c0 1.05 -0.40 2.05 -1 2.60 -0.80 0.75 -1 0.75 -1 0.15z"/>
 </g>
</svg>